# AST/ASF file generated using VICON BodyLanguage
# -----------------------------------------------
:version 1.10
:name VICON
:units
  mass 1.0
  length 0.45
  angle deg
:documentation
   .ast/.asf automatically generated from VICON data using
   VICON BodyBuilder and BodyLanguage model FoxedUp or BRILLIANT.MOD
:root
   order TX TY TZ RX RY RZ
   axis XYZ
   position 0 0 0  
   orientation 0 0 0 
:bonedata
  begin
     id 1 
     name lhipjoint
     direction 0.650112 -0.723553 0.232005 
     length 2.45805 
     axis 0 0 0  XYZ
  end
  begin
     id 2 
     name lfemur
     direction 0.34202 -0.939693 0  
     length 7.00073  
     axis 0 0 20  XYZ
    dof rx ry rz
    limits (-160.0 20.0)
           (-70.0 70.0)
           (-60.0 70.0)
  end
  begin
     id 3 
     name ltibia
     direction 0.34202 -0.939693 0   
     length 7.8748   
     axis 0 0 20   XYZ
    dof rx
    limits (-10.0 170.0)
  end
  begin
     id 4 
     name lfoot
     direction 0.0542825 -0.14914 0.987325   
     length 1.75978   
     axis -90 7.62852e-016 20   XYZ
    dof rx rz
    limits (-45.0 90.0)
           (-70.0 20.0)
  end
  begin
     id 5 
     name ltoes
     direction 1.53509e-011 -4.21906e-011 1   
     length 0.893912   
     axis -90 7.62852e-016 20   XYZ
    dof rx
    limits (-90.0 20.0)
  end
  begin
     id 6 
     name rhipjoint
     direction -0.637897 -0.733345 0.235145   
     length 2.42522  
     axis 0 0 0  XYZ 
  end
  begin
     id 7 
     name rfemur
     direction -0.34202 -0.939693 0   
     length 7.02549   
     axis 0 0 -20   XYZ
    dof rx ry rz
    limits (-160.0 20.0)
           (-70.0 70.0)
           (-70.0 60.0)
  end
  begin
     id 8 
     name rtibia
     direction -0.34202 -0.939693 0   
     length 7.71512   
     axis 0 0 -20   XYZ
    dof rx
    limits (-10.0 170.0)
 end
 begin
     id 9 
     name rfoot
     direction -0.0822618 -0.226012 0.970645   
     length 1.90014  
     axis -90 -7.62852e-016 -20   XYZ
    dof rx rz
    limits (-45.0 90.0)
           (-20.0 70.0)
  end
  begin
     id 10 
     name rtoes
     direction -1.53542e-011 -4.21872e-011 1   
     length 0.957341   
     axis -90 -7.62852e-016 -20   XYZ
    dof rx
    limits (-90.0 20.0)
  end
  begin
     id 11 
     name lowerback
     direction -0.0022947 0.999774 -0.0211557   
     length 1.89909   
     axis 0 0 0   XYZ
    dof rx ry rz
    limits (-20.0 45.0)
           (-30.0 30.0)
           (-30.0 30.0)
  end
  begin
     id 12 
     name upperback
     direction 0.0107737 0.998635 0.0511027   
     length 1.8853   
     axis 0 0 0   XYZ
    dof rx ry rz
    limits (-20.0 45.0)
           (-30.0 30.0)
           (-30.0 30.0)
  end
  begin
     id 13 
     name thorax
     direction 0.011824 0.998136 0.0598754   
     length 1.88911   
     axis 0 0 0   XYZ
    dof rx ry rz
    limits (-20.0 45.0)
           (-30.0 30.0)
           (-30.0 30.0)
  end
  begin
     id 14 
     name lowerneck
     direction -0.0685355 0.990319 0.120714   
     length 1.91222   
     axis 0 0 0   XYZ
    dof rx ry rz
    limits (-20.0 45.0)
           (-30.0 30.0)
           (-30.0 30.0)
  end
  begin
     id 15 
     name upperneck
     direction 0.0886204 0.955665 -0.280805   
     length 1.92526   
     axis 0 0 0   XYZ
    dof rx ry rz
    limits (-20.0 45.0)
           (-30.0 30.0)
           (-30.0 30.0)
  end
  begin
     id 16
     name head
     direction 0.0233423 0.993502 -0.111393  
     length 1.96056  
     axis 0 0 0   XYZ
    dof rx ry rz
    limits (-20.0 45.0)
           (-30.0 30.0)
           (-30.0 30.0)
  end
  begin
     id 17 
     name lclavicle
     direction 0.941873 0.32922 0.0670041  
     length 3.31705  
     axis 0 0 0   XYZ
    dof ry rz
    limits (-20.0 10.0)
           (0.0 20.0)
  end
  begin
     id 18 
     name lhumerus
     direction 1 -4.4898e-011 3.38707e-028   
     length 5.29277   
     axis 180 -30 -90   XYZ
    dof rx ry rz
    limits (-60.0 90.0)
           (-90.0 90.0)
           (-90.0 90.0)
  end
  begin
     id 19
     name lradius
     direction 1 -4.48952e-011 1.63213e-028   
     length 2.85226   
     axis 180 -30 -90   XYZ
    dof rx
    limits (-10.0 170.0)
  end
  begin
     id 20
     name lwrist
     direction 1 -4.49001e-011 1.27856e-027   
     length 1.42613   
     axis -1.61767e-015 90 90   XYZ
    dof ry
    limits (-180.0 0.0)
 end
  begin
     id 21 
     name lhand
     direction 1 -4.48976e-011 2.55931e-027   
     length 0.602097   
     axis -1.63363e-015 90 90   XYZ
    dof rx rz
    limits (-90.0 90.0)
           (-45.0 45.0)
  end
  begin
     id 22 
     name lfingers
     direction 1 -4.48986e-011 5.11684e-027   
     length 0.485426   
     axis -3.26723e-015 90 90   XYZ
    dof rx
    limits (0.0 90.0)
  end
  begin
     id 23
     name lthumb
     direction 0.707107 -6.34915e-011 0.707107   
     length 0.696978   
     axis -90 45 -2.25915e-014   XYZ
    dof rx rz
    limits (-45.0 45.0)
           (-45.0 45.0)
  end
  begin
     id 24 
     name rclavicle
     direction -0.939974 0.327078 0.0973096   
     length 3.10337  
     axis 0 0 0   XYZ 
    dof ry rz
    limits (-10.0 20.0)
           (-20.0 0.0)
  end
  begin
     id 25 
     name rhumerus
     direction -1 -4.48975e-011 1.83745e-027  
     length 5.13304   
     axis 180 30 90   XYZ
    dof rx ry rz
    limits (-90.0 60.0)
           (-90.0 90.0)
           (-90.0 90.0)
  end
  begin
     id 26 
     name rradius
     direction -1 -4.48977e-011 7.1775e-029   
     length 2.74305   
     axis 180 30 90   XYZ
    dof rx
    limits (-10.0 170.0)
  end
  begin
     id 27 
     name rwrist
     direction -1 -4.48977e-011 1.27963e-027   
     length 1.37152   
     axis -1.61767e-015 -90 -90   XYZ
    dof ry
    limits (-180.0 0.0)
  end
  begin
     id 28
     name rhand
     direction -1 -4.4888e-011 2.56782e-027   
     length 0.767976   
     axis -1.63363e-015 -90 -90   XYZ
    dof rx rz
    limits (-90.0 90.0)
           (-45.0 45.0)
  end
  begin
     id 29
     name rfingers
     direction -1 -4.48947e-011 5.12384e-027   
     length 0.619162   
     axis -3.26723e-015 -90 -90   XYZ
    dof rx
    limits (0.0 90.0)
  end
  begin
     id 30
     name rthumb
     direction -0.707107 -6.34857e-011 0.707107   
     length 0.888997   
     axis -90 -45 2.25915e-014   XYZ
    dof rx rz
    limits (-45.0 45.0)
           (-45.0 45.0)
  end
:hierarchy
  begin
    root lhipjoint rhipjoint lowerback
    lhipjoint lfemur
    lfemur ltibia
    ltibia lfoot
    lfoot ltoes
    rhipjoint rfemur
    rfemur rtibia
    rtibia rfoot
    rfoot rtoes
    lowerback upperback
    upperback thorax
    thorax lowerneck lclavicle rclavicle
    lowerneck upperneck
    upperneck head
    lclavicle lhumerus
    lhumerus lradius
    lradius lwrist
    lwrist lhand lthumb
    lhand lfingers
    rclavicle rhumerus
    rhumerus rradius
    rradius rwrist
    rwrist rhand rthumb
    rhand rfingers
  end

#!OML:ASF F:\VICON\USERDATA\INSTALL\rory3\rory3.ASF
:FULLY-SPECIFIED
:DEGREES
514
root -0.491181 16.623 -1.37654 8.0325 1.95383 -7.00175
lowerback 12.3222 -1.6142 -5.91458
upperback 1.6284 -3.25105 -5.90402
thorax -5.22363 -1.52921 -2.3529
lowerneck -13.2792 -10.9045 -17.0247
upperneck 26.8184 -16.5307 16.6555
head 14.4174 -7.29147 6.60878
rclavicle 1.19271e-014 3.18055e-014
rhumerus 11.1182 -18.5895 -6.38289
rradius 100.43
rwrist 10.3273
rhand 3.63097 21.9974
rfingers 7.12502
rthumb 29.0633 -5.7555
lclavicle 1.19271e-014 3.18055e-014
lhumerus 31.1743 16.9253 36.8795
lradius 94.0269
lwrist 24.9706
lhand 14.6145 24.5371
lfingers 7.12502
lthumb 39.4887 49.9154
rfemur -27.1273 2.22759 27.3762
rtibia 38.3551
rfoot -22.184 -4.15853
rtoes -20.0396
lfemur -31.6888 1.05538 -6.91299
ltibia 45.9387
lfoot -21.681 -6.00131
ltoes -17.3421
515
root -0.456599 16.6448 -1.37682 8.14508 2.59444 -6.44796
lowerback 12.2807 -1.59534 -5.612
upperback 1.66656 -3.16475 -5.67578
thorax -5.16207 -1.49193 -2.29465
lowerneck -13.1921 -10.9598 -17.0257
upperneck 26.5864 -16.6035 16.7256
head 14.3217 -7.31671 6.61357
rclavicle -1.51076e-014 -4.77083e-014
rhumerus 11.2855 -19.4587 -7.27722
rradius 100.448
rwrist 10.3346
rhand 3.36582 21.8494
rfingers 7.12502
rthumb 28.8101 -5.94685
lclavicle -1.51076e-014 -4.77083e-014
lhumerus 31.4216 16.9092 35.5073
lradius 93.5074
lwrist 24.8212
lhand 14.9857 24.4208
lfingers 7.12502
lthumb 39.8382 49.6955
rfemur -27.209 1.85564 26.6396
rtibia 38.3479
rfoot -22.1392 -4.46737
rtoes -20.1989
lfemur -31.7086 0.321466 -7.6167
ltibia 45.3804
lfoot -21.4782 -5.64111
ltoes -18.672
516
root -0.421245 16.6649 -1.3806 8.27738 3.24316 -5.87206
lowerback 12.2231 -1.56382 -5.35472
upperback 1.71281 -3.0639 -5.40675
thorax -5.0781 -1.44649 -2.17119
lowerneck -13.1395 -11.0083 -17.0411
upperneck 26.3153 -16.6508 16.8012
head 14.2134 -7.32984 6.62545
rclavicle -1.59028e-015 -2.22639e-014
rhumerus 11.5062 -20.3859 -8.1914
rradius 100.425
rwrist 10.367
rhand 2.74492 21.49
rfingers 7.12502
rthumb 28.2168 -6.40579
lclavicle -1.59028e-015 -2.22639e-014
lhumerus 31.5729 16.8366 33.9188
lradius 92.9758
lwrist 24.6475
lhand 15.1107 24.2112
lfingers 7.12502
lthumb 39.9559 49.4505
rfemur -27.3435 1.50097 25.8867
rtibia 38.3924
rfoot -22.0914 -4.86081
rtoes -20.764
lfemur -31.7646 -0.437714 -8.33341
ltibia 44.8272
lfoot -21.1977 -5.45044
ltoes -19.0008
517
root -0.383937 16.6825 -1.38484 8.4233 3.90497 -5.25059
lowerback 12.2019 -1.52969 -5.13884
upperback 1.7229 -2.96947 -5.09217
thorax -5.04833 -1.40169 -1.97474
lowerneck -13.1543 -11.0396 -17.0879
upperneck 26.0448 -16.6403 16.8385
head 14.1063 -7.32046 6.6366
rclavicle 3.10104e-014 4.77083e-014
rhumerus 11.8571 -21.2414 -9.23845
rradius 100.354
rwrist 10.4306
rhand 1.98654 20.9104
rfingers 7.12502
rthumb 27.4917 -7.10284
lclavicle 3.10104e-014 4.77083e-014
lhumerus 31.4674 16.6577 32.1332
lradius 92.6467
lwrist 24.3646
lhand 14.9778 23.8969
lfingers 7.12502
lthumb 39.8308 49.1738
rfemur -27.4864 1.08189 25.0954
rtibia 38.4731
rfoot -22.0989 -5.22935
rtoes -21.0518
lfemur -31.8325 -1.20304 -9.09972
ltibia 44.3022
lfoot -20.7847 -5.54575
ltoes -17.9952
518
root -0.345746 16.6978 -1.39032 8.56679 4.5251 -4.68778
lowerback 12.1373 -1.43664 -4.96245
upperback 1.76176 -2.79201 -4.68718
thorax -4.95787 -1.31596 -1.67601
lowerneck -13.1964 -11.0817 -17.1102
upperneck 25.7071 -16.6158 16.817
head 13.9633 -7.30661 6.61638
rclavicle -1.82882e-014 2.54444e-014
rhumerus 12.2264 -22.2414 -10.2109
rradius 100.331
rwrist 10.3803
rhand 1.40228 20.4373
rfingers 7.12502
rthumb 26.9328 -7.66346
lclavicle -1.82882e-014 2.54444e-014
lhumerus 31.4628 16.5245 30.5174
lradius 92.3441
lwrist 23.9462
lhand 14.7753 23.6296
lfingers 7.12502
lthumb 39.6401 48.9632
rfemur -27.6081 0.729302 24.3559
rtibia 38.5793
rfoot -22.1692 -5.53871
rtoes -20.8605
lfemur -31.9144 -1.94215 -9.79809
ltibia 43.8313
lfoot -20.4088 -5.66711
ltoes -17.1003
519
root -0.304318 16.7093 -1.40047 8.68778 5.1826 -4.31508
lowerback 12.1454 -1.33321 -4.60007
upperback 1.79857 -2.57897 -4.18944
thorax -4.91562 -1.21474 -1.38829
lowerneck -13.2479 -11.1455 -17.1858
upperneck 25.3832 -16.6297 16.8507
head 13.8512 -7.30886 6.62116
rclavicle -3.4191e-014 -1.11319e-014
rhumerus 12.7074 -23.3944 -11.0471
rradius 100.219
rwrist 10.0162
rhand 1.04565 20.1917
rfingers 7.12502
rthumb 26.5915 -7.96131
lclavicle -3.4191e-014 -1.11319e-014
lhumerus 31.6501 16.4516 29.0313
lradius 91.9346
lwrist 23.3349
lhand 14.562 23.5016
lfingers 7.12502
lthumb 39.4392 48.8944
rfemur -27.7225 0.410546 23.8104
rtibia 38.6845
rfoot -22.2683 -5.82231
rtoes -20.6486
lfemur -32.0511 -2.71339 -10.2713
ltibia 43.417
lfoot -20.0685 -5.6809
ltoes -16.1539
520
root -0.260158 16.7157 -1.41083 8.78327 5.83908 -3.87631
lowerback 12.2031 -1.25762 -4.21854
upperback 1.81995 -2.40707 -3.72643
thorax -4.92064 -1.1335 -1.14122
lowerneck -13.2546 -11.1793 -17.3717
upperneck 24.9855 -16.6208 17.0508
head 13.727 -7.29937 6.71877
rclavicle 4.77083e-015 -9.54166e-015
rhumerus 13.3669 -24.4681 -12.0618
rradius 100.008
rwrist 9.45628
rhand 0.729919 20.2198
rfingers 7.12502
rthumb 26.2893 -7.97864
lclavicle 4.77083e-015 -9.54166e-015
lhumerus 31.7892 16.4399 27.3999
lradius 91.4906
lwrist 22.5715
lhand 14.4386 23.2318
lfingers 7.12502
lthumb 39.3229 48.6586
rfemur -27.8467 0.0902351 23.1773
rtibia 38.8327
rfoot -22.2949 -6.24731
rtoes -21.3112
lfemur -32.1623 -3.42472 -10.841
ltibia 43.0446
lfoot -19.8054 -5.56942
ltoes -16.2261
521
root -0.212688 16.7218 -1.41974 8.92562 6.50059 -3.38225
lowerback 12.1868 -1.19629 -3.81916
upperback 1.81525 -2.2499 -3.29486
thorax -4.91477 -1.06021 -0.937203
lowerneck -13.238 -11.1852 -17.5177
upperneck 24.6478 -16.6011 17.2716
head 13.6201 -7.28067 6.82511
rclavicle 3.18055e-015 -9.54166e-015
rhumerus 14.0146 -25.4899 -13.2446
rradius 99.9111
rwrist 8.59718
rhand 0.714813 20.2166
rfingers 7.12502
rthumb 26.2749 -7.98402
lclavicle 3.18055e-015 -9.54166e-015
lhumerus 31.8751 16.3894 25.7576
lradius 91.0712
lwrist 21.7978
lhand 14.0824 23.1021
lfingers 7.12502
lthumb 38.9873 48.6258
rfemur -28.054 -0.356521 22.4962
rtibia 39.0277
rfoot -22.3772 -6.59989
rtoes -21.8142
lfemur -32.2993 -4.16125 -11.4674
ltibia 42.7306
lfoot -19.527 -5.56022
ltoes -15.4816
522
root -0.165593 16.7253 -1.43245 9.11396 7.10244 -2.72374
lowerback 12.1976 -1.05872 -3.59509
upperback 1.78849 -2.02153 -2.93819
thorax -4.94511 -0.94866 -0.724856
lowerneck -13.0918 -11.2193 -17.4545
upperneck 24.201 -16.6594 17.4368
head 13.4292 -7.29091 6.85352
rclavicle 7.95139e-016 -1.43125e-014
rhumerus 14.4023 -26.5919 -14.3106
rradius 99.9552
rwrist 7.55825
rhand 0.475255 19.8912
rfingers 7.12502
rthumb 26.0455 -8.34337
lclavicle 7.95139e-016 -1.43125e-014
lhumerus 32.1079 16.2406 24.1837
lradius 90.6008
lwrist 21.11
lhand 13.8146 22.8193
lfingers 7.12502
lthumb 38.7347 48.4148
rfemur -28.3369 -0.797911 21.6381
rtibia 39.311
rfoot -22.4468 -6.87407
rtoes -21.5671
lfemur -32.4909 -4.9161 -12.271
ltibia 42.4694
lfoot -19.277 -5.53658
ltoes -14.9979
523
root -0.12189 16.7197 -1.45119 9.2676 7.63469 -2.27078
lowerback 12.2637 -0.887032 -3.29793
upperback 1.79199 -1.73336 -2.46247
thorax -4.97442 -0.808427 -0.438148
lowerneck -13.0872 -11.2856 -17.4243
upperneck 23.7531 -16.7276 17.5824
head 13.2734 -7.30289 6.87136
rclavicle -2.82274e-014 -1.74931e-014
rhumerus 14.8816 -27.7731 -15.3394
rradius 100.037
rwrist 6.3179
rhand 0.164607 19.2784
rfingers 7.12502
rthumb 25.748 -8.99957
lclavicle -2.82274e-014 -1.74931e-014
lhumerus 32.3526 16.2004 22.6364
lradius 90.1118
lwrist 20.499
lhand 13.7164 22.4191
lfingers 7.12502
lthumb 38.6421 48.0407
rfemur -28.621 -0.993835 20.9769
rtibia 39.6797
rfoot -22.4798 -7.17308
rtoes -21.1228
lfemur -32.7345 -5.54609 -12.8271
ltibia 42.2551
lfoot -18.9025 -5.62128
ltoes -13.9875
524
root -0.0721933 16.7147 -1.46703 9.3752 8.17271 -1.94918
lowerback 12.2814 -0.762446 -2.82846
upperback 1.86539 -1.47433 -1.8942
thorax -4.90673 -0.686559 -0.148721
lowerneck -13.3182 -11.3643 -17.5433
upperneck 23.3463 -16.7544 17.7511
head 13.1953 -7.29423 6.92614
rclavicle 2.8625e-014 3.10104e-014
rhumerus 15.7473 -28.9924 -16.5238
rradius 100.044
rwrist 4.91171
rhand 0.038596 18.6504
rfingers 7.12502
rthumb 25.6273 -9.64503
lclavicle 2.8625e-014 3.10104e-014
lhumerus 32.3724 16.2939 21.0218
lradius 89.749
lwrist 20.155
lhand 13.6125 22.3342
lfingers 7.12502
lthumb 38.544 47.9833
rfemur -28.8502 -1.29586 20.4574
rtibia 40.1156
rfoot -22.6423 -7.37762
rtoes -21.2677
lfemur -32.935 -6.14819 -13.2684
ltibia 42.092
lfoot -18.5941 -5.79323
ltoes -12.6339
525
root -0.0180609 16.7148 -1.48011 9.49732 8.71504 -1.3234
lowerback 12.342 -0.653788 -2.61429
upperback 1.89815 -1.27508 -1.36069
thorax -4.90091 -0.58869 0.257732
lowerneck -13.5488 -11.4318 -17.7716
upperneck 23.0277 -16.7528 17.9235
head 13.1595 -7.28136 7.01202
rclavicle 2.06736e-014 -2.06736e-014
rhumerus 16.7852 -29.9389 -17.7926
rradius 99.8871
rwrist 4.05042
rhand -0.600024 18.4322
rfingers 7.12502
rthumb 25.0155 -9.94984
lclavicle 2.06736e-014 -2.06736e-014
lhumerus 32.2416 16.3411 19.3969
lradius 89.3916
lwrist 19.9301
lhand 13.1952 22.4679
lfingers 7.12502
lthumb 38.1502 48.2261
rfemur -29.0538 -1.7739 19.6121
rtibia 40.586
rfoot -22.8793 -7.55024
rtoes -21.4343
lfemur -33.0603 -6.83692 -14.07
ltibia 41.9702
lfoot -18.453 -5.72232
ltoes -12.8747
526
root 0.0386947 16.7043 -1.49682 9.6148 9.23549 -0.626096
lowerback 12.4228 -0.497953 -2.35794
upperback 1.89262 -1.01755 -0.983019
thorax -4.95436 -0.463106 0.46794
lowerneck -13.5614 -11.4759 -17.6477
upperneck 22.627 -16.8161 18.069
head 13.0191 -7.28326 7.01691
rclavicle -3.00165e-014 2.54444e-014
rhumerus 17.4315 -30.6074 -18.9364
rradius 99.714
rwrist 3.08665
rhand -1.72896 17.9469
rfingers 7.12502
rthumb 23.9333 -10.5816
lclavicle -3.00165e-014 2.54444e-014
lhumerus 32.2535 16.2498 17.628
lradius 89.0412
lwrist 19.5472
lhand 13.0928 22.4027
lfingers 7.12502
lthumb 38.0535 48.1874
rfemur -29.2761 -2.29843 18.6815
rtibia 41.0758
rfoot -23.0859 -7.69896
rtoes -21.6522
lfemur -33.1895 -7.5108 -14.9633
ltibia 41.9076
lfoot -18.2595 -5.79165
ltoes -12.1547
